<?xml version="1.0" encoding="iso-8859-1"?>
<!-- Generator: Adobe Illustrator 27.0.0, SVG Export Plug-In . SVG Version: 6.00 Build 0)  -->
<svg version="1.1" id="Layer_1" xmlns="http://www.w3.org/2000/svg" xmlns:xlink="http://www.w3.org/1999/xlink" x="0px" y="0px"
	 viewBox="0 0 500 500" style="enable-background:new 0 0 500 500;" xml:space="preserve">
<g id="watermark_1_">
	<g>
		<g id="watermark" style="opacity:0.61;">
			<g>
				<g>
					<g>
						<g>
							<polygon style="fill:#FFFFFF;" points="213.765,461.172 208.204,474.017 205.268,474.017 199.726,461.172 202.938,461.172 
								206.846,470.347 210.81,461.172 							"/>
						</g>
						<g>
							<path style="fill:#FFFFFF;" d="M223.507,469.741h-7.469c0.275,1.23,1.321,1.982,2.826,1.982c1.046,0,1.798-0.312,2.477-0.954
								l1.523,1.651c-0.917,1.046-2.294,1.597-4.074,1.597c-3.413,0-5.634-2.147-5.634-5.083c0-2.954,2.257-5.083,5.267-5.083
								c2.899,0,5.138,1.945,5.138,5.12C223.562,469.191,223.526,469.503,223.507,469.741 M216.002,468.071h4.863
								c-0.202-1.248-1.138-2.055-2.422-2.055C217.139,466.016,216.204,466.805,216.002,468.071"/>
						</g>
						<g>
							<path style="fill:#FFFFFF;" d="M224.735,468.934c0-2.973,2.294-5.083,5.505-5.083c2.074,0,3.707,0.899,4.423,2.514
								l-2.22,1.193c-0.532-0.936-1.321-1.358-2.221-1.358c-1.45,0-2.587,1.009-2.587,2.734c0,1.725,1.138,2.734,2.587,2.734
								c0.899,0,1.688-0.404,2.221-1.358l2.22,1.211c-0.716,1.578-2.349,2.495-4.423,2.495
								C227.029,474.017,224.735,471.907,224.735,468.934"/>
						</g>
						<g>
							<path style="fill:#FFFFFF;" d="M242.828,473.393c-0.587,0.422-1.45,0.624-2.331,0.624c-2.33,0-3.688-1.193-3.688-3.542
								v-4.055h-1.523v-2.202h1.523v-2.404h2.863v2.404h2.459v2.202h-2.459v4.019c0,0.844,0.458,1.303,1.229,1.303
								c0.422,0,0.844-0.128,1.156-0.367L242.828,473.393z"/>
						</g>
					</g>
					<g>
						<path style="fill:#FFFFFF;" d="M262.474,463.997v2.643c-0.238-0.018-0.422-0.037-0.642-0.037
							c-1.578,0-2.624,0.862-2.624,2.753v4.661h-2.863v-9.873h2.734v1.303C259.776,464.493,260.951,463.997,262.474,463.997"/>
					</g>
					<g>
						<path style="fill:#FFFFFF;" d="M263.299,472.53l1.009-2.239c1.083,0.789,2.697,1.339,4.239,1.339
							c1.762,0,2.477-0.587,2.477-1.376c0-2.404-7.469-0.752-7.469-5.524c0-2.184,1.762-4,5.413-4c1.615,0,3.267,0.385,4.459,1.138
							l-0.918,2.257c-1.193-0.679-2.422-1.009-3.56-1.009c-1.761,0-2.44,0.66-2.44,1.468c0,2.367,7.468,0.734,7.468,5.45
							c0,2.147-1.78,3.982-5.45,3.982C266.492,474.017,264.437,473.411,263.299,472.53"/>
					</g>
					<g>
						<path style="fill:#FFFFFF;" d="M285.428,469.741h-7.469c0.275,1.23,1.321,1.982,2.826,1.982c1.046,0,1.798-0.312,2.477-0.954
							l1.523,1.651c-0.918,1.046-2.294,1.597-4.074,1.597c-3.413,0-5.634-2.147-5.634-5.083c0-2.954,2.257-5.083,5.267-5.083
							c2.9,0,5.138,1.945,5.138,5.12C285.484,469.191,285.447,469.503,285.428,469.741 M277.923,468.071h4.863
							c-0.202-1.248-1.138-2.055-2.422-2.055C279.061,466.016,278.125,466.805,277.923,468.071"/>
					</g>
					<g>
						<path style="fill:#FFFFFF;" d="M297.007,469.741h-7.469c0.275,1.23,1.321,1.982,2.826,1.982c1.046,0,1.798-0.312,2.477-0.954
							l1.523,1.651c-0.918,1.046-2.294,1.597-4.074,1.597c-3.413,0-5.634-2.147-5.634-5.083c0-2.954,2.257-5.083,5.267-5.083
							c2.899,0,5.138,1.945,5.138,5.12C297.062,469.191,297.025,469.503,297.007,469.741 M289.501,468.071h4.863
							c-0.202-1.248-1.138-2.055-2.422-2.055C290.639,466.016,289.703,466.805,289.501,468.071"/>
					</g>
					<g>
						<polygon style="fill:#FFFFFF;" points="303.208,470.145 301.831,471.503 301.831,474.017 298.969,474.017 298.969,460.401 
							301.831,460.401 301.831,468.108 306.016,464.144 309.429,464.144 305.318,468.328 309.796,474.017 306.327,474.017 						"/>
					</g>
					<g>
						<path style="fill:#FFFFFF;" d="M256.601,475.359L256.601,475.359l-2.86-2.86c-0.435,0.508-0.953,0.943-1.534,1.284
							c-0.092,0.069-0.186,0.136-0.283,0.199l3.027,3.027c0.456,0.456,1.195,0.456,1.65,0
							C257.057,476.554,257.057,475.815,256.601,475.359"/>
					</g>
					<g>
						<path style="fill:#FFFFFF;" d="M249.984,463.244c0.221-0.173,0.495-0.281,0.797-0.281c0.042,0,0.083,0.002,0.124,0.006
							c-0.214-0.156-0.478-0.249-0.764-0.249c-0.395,0-0.744,0.18-0.981,0.458c-0.051,0-0.1,0.006-0.151,0.008
							c0.039-0.077,0.064-0.162,0.064-0.255c0-0.234-0.143-0.434-0.346-0.519c0.087,0.126,0.138,0.279,0.138,0.445
							c0,0.122-0.031,0.237-0.081,0.341c-2.811,0.201-5.03,2.539-5.03,5.4c0,2.993,2.426,5.42,5.42,5.42
							c2.993,0,5.42-2.426,5.42-5.42C254.595,465.879,252.593,463.635,249.984,463.244 M247.983,464.656
							c0.435,0,0.844,0.112,1.199,0.309c0.374-0.245,0.82-0.387,1.299-0.387c0.711,0,1.348,0.312,1.784,0.806
							c-0.435-0.379-1.004-0.61-1.627-0.61c-0.449,0-0.87,0.12-1.234,0.329c-0.079,0.046-0.156,0.096-0.229,0.15
							c-0.065-0.048-0.133-0.093-0.204-0.134c-0.369-0.219-0.8-0.344-1.26-0.344c-0.3,0-0.588,0.054-0.854,0.152
							C247.196,464.754,247.578,464.656,247.983,464.656 M251.772,469.098c0.115,0.305,0.181,0.634,0.181,0.979
							c0,1.534-1.244,2.777-2.778,2.777c-1.534,0-2.777-1.243-2.777-2.777c0-0.345,0.066-0.674,0.181-0.979
							c-0.62-0.382-1.035-1.064-1.035-1.846c0-1.197,0.971-2.168,2.168-2.168c0.565,0,1.078,0.218,1.463,0.572
							c0.386-0.354,0.899-0.572,1.464-0.572c1.197,0,2.168,0.971,2.168,2.168C252.807,468.034,252.392,468.716,251.772,469.098"/>
					</g>
					<g>
						<path style="fill:#FFFFFF;" d="M251.666,467.061c0,0.497-0.404,0.901-0.901,0.901c-0.497,0-0.901-0.404-0.901-0.901
							s0.404-0.901,0.901-0.901c0.101,0,0.197,0.017,0.287,0.047c-0.03,0.062-0.045,0.132-0.045,0.204
							c0,0.273,0.221,0.494,0.494,0.494c0.05,0,0.099-0.008,0.146-0.022C251.66,466.941,251.666,467,251.666,467.061"/>
					</g>
					<g>
						<path style="fill:#FFFFFF;" d="M248.255,467.061c0,0.376-0.305,0.681-0.681,0.681c-0.376,0-0.681-0.305-0.681-0.681
							s0.305-0.681,0.681-0.681c0.076,0,0.149,0.013,0.217,0.035c-0.023,0.047-0.034,0.1-0.034,0.155
							c0,0.206,0.167,0.374,0.374,0.374c0.038,0,0.075-0.006,0.11-0.017C248.25,466.97,248.255,467.015,248.255,467.061"/>
					</g>
					<g>
						<g>
							<g>
								<rect x="242.908" y="467.83" style="fill:#FFFFFF;" width="0.616" height="0.616"/>
							</g>
							<g>
								<rect x="254.827" y="467.83" style="fill:#FFFFFF;" width="0.616" height="0.616"/>
							</g>
							<g>
								<path style="fill:#FFFFFF;" d="M255.205,468.082h-0.14c0-3.248-2.642-5.89-5.89-5.89c-3.248,0-5.89,2.642-5.89,5.89h-0.14
									c0-1.611,0.627-3.125,1.766-4.264c1.139-1.139,2.653-1.766,4.264-1.766c1.611,0,3.125,0.627,4.264,1.766
									C254.578,464.957,255.205,466.471,255.205,468.082"/>
							</g>
						</g>
						<g>
							<rect x="248.868" y="461.814" style="fill:#FFFFFF;" width="0.616" height="0.616"/>
						</g>
						<g>
							<rect x="244.95" y="462.052" style="fill:#FFFFFF;" width="8.45" height="0.14"/>
						</g>
						<g>
							<path style="fill:#FFFFFF;" d="M245.174,462.15c0,0.108-0.088,0.196-0.196,0.196c-0.108,0-0.196-0.088-0.196-0.196
								c0-0.108,0.088-0.196,0.196-0.196C245.086,461.954,245.174,462.042,245.174,462.15"/>
						</g>
						<g>
							<path style="fill:#FFFFFF;" d="M253.596,462.15c0,0.108-0.088,0.196-0.196,0.196c-0.108,0-0.196-0.088-0.196-0.196
								c0-0.108,0.088-0.196,0.196-0.196C253.509,461.954,253.596,462.042,253.596,462.15"/>
						</g>
					</g>
				</g>
				<g>
					<path style="fill:#FFFFFF;" d="M314.356,473.409c0,1.559-2.364,1.559-2.364,0C311.993,471.851,314.356,471.851,314.356,473.409
						z"/>
				</g>
				<g>
					<g>
						<g>
							<path style="fill:#FFFFFF;" d="M161.739,466.549l1.772,6.088l1.855-6.088h2.215l-2.823,8.14h-2.33l-0.837-2.396l-0.722-2.708
								l-0.722,2.708l-0.837,2.396h-2.33l-2.839-8.14h2.231l1.855,6.088l1.756-6.088H161.739z"/>
						</g>
						<g>
							<path style="fill:#FFFFFF;" d="M176.713,466.549l1.772,6.088l1.855-6.088h2.215l-2.823,8.14h-2.33l-0.837-2.396l-0.722-2.708
								l-0.722,2.708l-0.837,2.396h-2.33l-2.839-8.14h2.231l1.855,6.088l1.756-6.088H176.713z"/>
						</g>
						<g>
							<path style="fill:#FFFFFF;" d="M191.687,466.549l1.772,6.088l1.855-6.088h2.215l-2.823,8.14h-2.33l-0.837-2.396l-0.722-2.708
								l-0.722,2.708l-0.837,2.396h-2.33l-2.839-8.14h2.231l1.855,6.088l1.756-6.088H191.687z"/>
						</g>
					</g>
					<g>
						<path style="fill:#FFFFFF;" d="M200.908,473.52c0,1.559-2.364,1.559-2.364,0C198.545,471.962,200.908,471.962,200.908,473.52z
							"/>
					</g>
					<g>
						<path style="fill:#FFFFFF;" d="M322.71,473.409c-0.935,0.919-1.919,1.28-3.117,1.28c-2.346,0-4.3-1.411-4.3-4.282
							s1.953-4.284,4.3-4.284c1.149,0,2.035,0.329,2.921,1.199l-1.264,1.329c-0.476-0.428-1.066-0.64-1.623-0.64
							c-1.346,0-2.33,0.985-2.33,2.396c0,1.542,1.05,2.362,2.297,2.362c0.64,0,1.28-0.18,1.772-0.672L322.71,473.409z"/>
					</g>
					<g>
						<path style="fill:#FFFFFF;" d="M331.805,470.472c0,2.33-1.591,4.217-4.217,4.217c-2.626,0-4.201-1.887-4.201-4.217
							c0-2.314,1.609-4.217,4.185-4.217C330.149,466.255,331.805,468.158,331.805,470.472z M325.389,470.472
							c0,1.231,0.739,2.38,2.199,2.38c1.46,0,2.199-1.149,2.199-2.38c0-1.215-0.854-2.396-2.199-2.396
							C326.144,468.077,325.389,469.258,325.389,470.472z"/>
					</g>
					<g>
						<path style="fill:#FFFFFF;" d="M338.572,474.689v-4.332c0-1.068-0.559-2.035-1.658-2.035c-1.082,0-1.722,0.967-1.722,2.035
							v4.332h-2.003v-8.107h1.855l0.148,0.985c0.426-0.82,1.362-1.116,2.133-1.116c0.969,0,1.937,0.394,2.396,1.51
							c0.723-1.149,1.658-1.478,2.708-1.478c2.297,0,3.43,1.412,3.43,3.84v4.365h-2.003v-4.365c0-1.066-0.442-1.97-1.526-1.97
							c-1.082,0-1.756,0.935-1.756,2.003v4.332H338.572z"/>
					</g>
				</g>
			</g>
		</g>
		<g style="opacity:0.61;">
			<g>
				<g>
					<path style="fill:#FFFFFF;" d="M345.988,431.299c-0.006-1.224-0.959-2.121-2.189-2.14c-0.924-0.014-0.832,0.12-0.834-0.867
						c-0.003-1.097-0.007-2.194,0.003-3.292c0.003-0.379-0.112-0.691-0.362-0.976c-2.342-2.668-4.678-5.342-7.019-8.011
						c-0.12-0.137-0.275-0.244-0.414-0.366c-6.214,0-12.427,0-18.641,0c-0.794,0.293-1.14,0.868-1.138,1.709
						c0.01,3.748,0.004,7.496,0.004,11.243c0,0.556-0.003,0.589-0.55,0.551c-1.497-0.102-2.516,0.986-2.497,2.492
						c0.044,3.476,0.013,6.953,0.014,10.429c0.001,1.58,0.867,2.443,2.45,2.449c0.582,0.002,0.582,0.002,0.582,0.6
						c0,2.219-0.001,4.438,0.001,6.657c0.001,1.192,0.58,1.771,1.768,1.771c8.013,0.001,16.027,0.001,24.04,0
						c1.168,0,1.755-0.583,1.757-1.745c0.002-2.256,0-4.512,0.001-6.768c0-0.512,0.002-0.511,0.52-0.515
						c0.271-0.002,0.541,0.008,0.809-0.058c0.996-0.246,1.69-1.044,1.694-2.069C346.003,438.696,346.005,434.997,345.988,431.299z
						 M317.537,417.162c5.337,0,10.674,0,16.01,0c0.548,0,0.554,0.007,0.554,0.561c0.001,2.243-0.001,4.486,0.001,6.73
						c0.001,0.811,0.249,1.059,1.06,1.059c1.91,0.001,3.821,0,5.731,0.001c0.458,0,0.479,0.021,0.481,0.483
						c0.003,0.887,0.002,1.775,0,2.662c-0.001,0.477-0.024,0.498-0.504,0.499c-3.895,0.001-7.79,0-11.684,0
						c-3.882,0-7.765,0-11.647,0c-0.55,0-0.552-0.001-0.552-0.561c-0.001-3.624-0.001-7.247,0-10.871
						C316.987,417.166,316.991,417.162,317.537,417.162z M340.822,451.579c-3.883,0.001-7.766,0-11.65,0c-3.871,0-7.742,0-11.613,0
						c-0.572,0-0.574-0.002-0.574-0.579c-0.001-1.997-0.001-3.994,0.001-5.991c0-0.464,0.023-0.486,0.478-0.487
						c7.803-0.001,15.607-0.001,23.41,0c0.478,0,0.499,0.02,0.499,0.503c0.002,1.997,0.001,3.994,0,5.991
						C341.375,451.574,341.37,451.579,340.822,451.579z"/>
				</g>
				<g>
					<g>
						<rect x="327.418" y="417.053" style="fill:#FFFFFF;" width="1.757" height="1.054"/>
					</g>
					<g>
						<rect x="325.662" y="418.107" style="fill:#FFFFFF;" width="1.757" height="1.054"/>
					</g>
					<g>
						<rect x="327.418" y="419.161" style="fill:#FFFFFF;" width="1.757" height="1.054"/>
					</g>
					<g>
						<rect x="325.662" y="420.215" style="fill:#FFFFFF;" width="1.757" height="1.054"/>
					</g>
					<g>
						<rect x="327.418" y="421.269" style="fill:#FFFFFF;" width="1.757" height="1.054"/>
					</g>
					<g>
						<rect x="325.662" y="422.323" style="fill:#FFFFFF;" width="1.757" height="1.054"/>
					</g>
					<g>
						<rect x="327.418" y="423.378" style="fill:#FFFFFF;" width="1.757" height="1.054"/>
					</g>
					<g>
						<rect x="325.662" y="424.432" style="fill:#FFFFFF;" width="1.757" height="1.054"/>
					</g>
					<g>
						<rect x="327.418" y="425.486" style="fill:#FFFFFF;" width="1.757" height="1.054"/>
					</g>
					<g>
						<rect x="325.662" y="426.54" style="fill:#FFFFFF;" width="1.757" height="1.054"/>
					</g>
					<g>
						<rect x="327.418" y="427.594" style="fill:#FFFFFF;" width="1.757" height="1.054"/>
					</g>
					<g>
						<rect x="325.662" y="428.648" style="fill:#FFFFFF;" width="1.757" height="1.054"/>
					</g>
				</g>
			</g>
			<g>
				<path style="fill:#FFFFFF;" d="M187.637,431.299c-0.006-1.224-0.959-2.121-2.189-2.14c-0.924-0.014-0.832,0.12-0.834-0.867
					c-0.003-1.097-0.007-2.194,0.003-3.292c0.003-0.379-0.112-0.691-0.362-0.976c-2.342-2.668-4.678-5.342-7.019-8.011
					c-0.12-0.137-0.275-0.244-0.414-0.366c-6.214,0-12.427,0-18.641,0c-0.794,0.293-1.14,0.868-1.138,1.709
					c0.01,3.748,0.004,7.496,0.004,11.243c0,0.556-0.003,0.589-0.55,0.551c-1.497-0.102-2.516,0.986-2.497,2.492
					c0.044,3.476,0.013,6.953,0.014,10.429c0.001,1.58,0.867,2.443,2.45,2.449c0.582,0.002,0.582,0.002,0.582,0.6
					c0,2.219-0.001,4.438,0.001,6.657c0.001,1.192,0.58,1.771,1.768,1.771c8.013,0.001,16.027,0.001,24.04,0
					c1.168,0,1.755-0.583,1.757-1.745c0.002-2.256,0-4.512,0.001-6.768c0-0.512,0.002-0.511,0.52-0.515
					c0.271-0.002,0.541,0.008,0.809-0.058c0.996-0.246,1.69-1.044,1.694-2.069C187.652,438.696,187.655,434.997,187.637,431.299z
					 M159.187,417.162c5.337,0,10.674,0,16.01,0c0.548,0,0.554,0.007,0.554,0.561c0.001,2.243-0.001,4.486,0.001,6.73
					c0.001,0.811,0.249,1.059,1.06,1.059c1.91,0.001,3.821,0,5.731,0.001c0.458,0,0.479,0.021,0.481,0.483
					c0.003,0.887,0.002,1.775,0,2.662c-0.001,0.477-0.024,0.498-0.504,0.499c-3.895,0.001-7.79,0-11.684,0
					c-3.882,0-7.765,0-11.647,0c-0.55,0-0.552-0.001-0.552-0.561c-0.001-3.624-0.001-7.247,0-10.871
					C158.636,417.166,158.64,417.162,159.187,417.162z M182.472,451.579c-3.883,0.001-7.766,0-11.65,0c-3.871,0-7.742,0-11.613,0
					c-0.572,0-0.574-0.002-0.574-0.579c-0.001-1.997-0.001-3.994,0.001-5.991c0-0.464,0.023-0.486,0.478-0.487
					c7.803-0.001,15.607-0.001,23.41,0c0.478,0,0.499,0.02,0.499,0.503c0.002,1.997,0.001,3.994,0,5.991
					C183.024,451.574,183.019,451.579,182.472,451.579z"/>
			</g>
			<g>
				<path style="fill:#FFFFFF;" d="M159.779,440.669v-7.897h2.779c0.375,0,0.726,0.061,1.053,0.182
					c0.327,0.121,0.612,0.292,0.855,0.513c0.242,0.221,0.434,0.483,0.573,0.789c0.14,0.305,0.21,0.642,0.21,1.009
					c0,0.375-0.07,0.715-0.21,1.02c-0.14,0.305-0.331,0.568-0.573,0.789c-0.243,0.221-0.528,0.392-0.855,0.513
					c-0.327,0.121-0.678,0.182-1.053,0.182h-1.29v2.901H159.779z M162.58,436.356c0.39,0,0.684-0.111,0.882-0.331
					c0.199-0.22,0.298-0.474,0.298-0.761c0-0.14-0.024-0.276-0.072-0.408c-0.048-0.132-0.121-0.248-0.221-0.347
					c-0.099-0.099-0.223-0.178-0.37-0.237c-0.147-0.059-0.32-0.089-0.518-0.089h-1.312v2.173H162.58z"/>
				<path style="fill:#FFFFFF;" d="M166.308,432.771h1.731l3.177,5.294h0.088l-0.088-1.522v-3.772h1.478v7.897h-1.566l-3.353-5.592
					h-0.088l0.088,1.522v4.07h-1.467V432.771z"/>
				<path style="fill:#FFFFFF;" d="M177.922,436.334h3.872c0.022,0.089,0.04,0.195,0.055,0.32c0.014,0.125,0.022,0.25,0.022,0.375
					c0,0.507-0.077,0.985-0.231,1.434c-0.154,0.449-0.397,0.849-0.728,1.202c-0.353,0.375-0.776,0.666-1.268,0.871
					c-0.493,0.206-1.055,0.309-1.688,0.309c-0.574,0-1.114-0.103-1.622-0.309c-0.507-0.206-0.948-0.492-1.323-0.86
					c-0.375-0.367-0.673-0.803-0.894-1.307c-0.221-0.504-0.331-1.053-0.331-1.649c0-0.595,0.11-1.145,0.331-1.649
					c0.221-0.504,0.518-0.939,0.894-1.307c0.375-0.367,0.816-0.654,1.323-0.86c0.507-0.206,1.048-0.309,1.622-0.309
					c0.64,0,1.211,0.11,1.715,0.331c0.504,0.221,0.935,0.526,1.296,0.915l-1.025,1.004c-0.258-0.272-0.544-0.48-0.861-0.623
					c-0.316-0.143-0.695-0.215-1.136-0.215c-0.361,0-0.703,0.065-1.026,0.193c-0.324,0.129-0.607,0.311-0.85,0.546
					c-0.242,0.235-0.436,0.52-0.579,0.855c-0.143,0.335-0.215,0.708-0.215,1.119c0,0.412,0.072,0.785,0.215,1.12
					c0.143,0.335,0.338,0.62,0.584,0.855c0.246,0.235,0.531,0.418,0.855,0.546c0.323,0.129,0.669,0.193,1.037,0.193
					c0.419,0,0.773-0.061,1.064-0.182c0.29-0.121,0.538-0.278,0.744-0.469c0.148-0.132,0.275-0.3,0.381-0.502
					c0.106-0.202,0.189-0.428,0.248-0.678h-2.482V436.334z"/>
			</g>
			<g>
				<path style="fill:#FFFFFF;" d="M224.019,431.299c-0.006-1.224-0.959-2.121-2.189-2.14c-0.924-0.014-0.832,0.12-0.834-0.867
					c-0.003-1.097-0.007-2.194,0.003-3.292c0.003-0.379-0.112-0.691-0.362-0.976c-2.342-2.668-4.678-5.342-7.019-8.011
					c-0.12-0.137-0.275-0.244-0.414-0.366c-6.214,0-12.427,0-18.641,0c-0.794,0.293-1.14,0.868-1.138,1.709
					c0.01,3.748,0.004,7.496,0.004,11.243c0,0.556-0.003,0.589-0.55,0.551c-1.497-0.102-2.516,0.986-2.497,2.492
					c0.044,3.476,0.013,6.953,0.014,10.429c0.001,1.58,0.867,2.443,2.45,2.449c0.582,0.002,0.582,0.002,0.582,0.6
					c0,2.219-0.001,4.438,0.001,6.657c0.001,1.192,0.58,1.771,1.768,1.771c8.013,0.001,16.027,0.001,24.04,0
					c1.168,0,1.755-0.583,1.757-1.745c0.002-2.256,0-4.512,0.001-6.768c0-0.512,0.002-0.511,0.52-0.515
					c0.271-0.002,0.541,0.008,0.809-0.058c0.997-0.246,1.69-1.044,1.694-2.069C224.034,438.696,224.036,434.997,224.019,431.299z
					 M195.568,417.162c5.337,0,10.674,0,16.01,0c0.548,0,0.554,0.007,0.554,0.561c0.001,2.243-0.001,4.486,0.001,6.73
					c0.001,0.811,0.249,1.059,1.06,1.059c1.91,0.001,3.821,0,5.731,0.001c0.458,0,0.479,0.021,0.481,0.483
					c0.003,0.887,0.002,1.775,0,2.662c-0.001,0.477-0.024,0.498-0.504,0.499c-3.895,0.001-7.79,0-11.684,0
					c-3.882,0-7.765,0-11.647,0c-0.55,0-0.552-0.001-0.552-0.561c-0.001-3.624-0.001-7.247,0-10.871
					C195.018,417.166,195.022,417.162,195.568,417.162z M218.854,451.579c-3.883,0.001-7.766,0-11.65,0c-3.871,0-7.742,0-11.613,0
					c-0.572,0-0.574-0.002-0.574-0.579c-0.001-1.997-0.001-3.994,0.001-5.991c0-0.464,0.023-0.486,0.478-0.487
					c7.803-0.001,15.607-0.001,23.41,0c0.478,0,0.499,0.02,0.499,0.503c0.002,1.997,0.001,3.994,0,5.991
					C219.406,451.574,219.401,451.579,218.854,451.579z"/>
			</g>
			<g>
				<path style="fill:#FFFFFF;" d="M205.111,432.771h1.699l2.967,7.897h-1.644l-0.651-1.886h-3.044l-0.651,1.886h-1.643
					L205.111,432.771z M206.997,437.415l-0.706-1.974l-0.287-0.96h-0.088l-0.287,0.96l-0.706,1.974H206.997z"/>
				<path style="fill:#FFFFFF;" d="M211.331,434.536c-0.125,0-0.245-0.024-0.359-0.072c-0.114-0.048-0.213-0.114-0.298-0.199
					c-0.084-0.084-0.151-0.182-0.198-0.292c-0.048-0.11-0.072-0.232-0.072-0.364s0.024-0.254,0.072-0.364
					c0.048-0.11,0.114-0.208,0.198-0.292c0.084-0.084,0.184-0.151,0.298-0.198c0.114-0.048,0.233-0.072,0.359-0.072
					c0.257,0,0.478,0.09,0.662,0.27c0.184,0.181,0.276,0.399,0.276,0.656s-0.092,0.476-0.276,0.656
					C211.809,434.446,211.589,434.536,211.331,434.536z M210.615,440.669v-5.404h1.445v5.404H210.615z"/>
			</g>
			<g>
				<path style="fill:#FFFFFF;" d="M261.044,431.299c-0.006-1.224-0.959-2.121-2.189-2.14c-0.924-0.014-0.832,0.12-0.834-0.867
					c-0.003-1.097-0.007-2.194,0.003-3.292c0.003-0.379-0.112-0.691-0.362-0.976c-2.342-2.668-4.678-5.342-7.019-8.011
					c-0.12-0.137-0.275-0.244-0.414-0.366c-6.214,0-12.427,0-18.641,0c-0.794,0.293-1.14,0.868-1.138,1.709
					c0.01,3.748,0.004,7.496,0.004,11.243c0,0.556-0.003,0.589-0.55,0.551c-1.497-0.102-2.516,0.986-2.497,2.492
					c0.044,3.476,0.013,6.953,0.014,10.429c0.001,1.58,0.867,2.443,2.45,2.449c0.582,0.002,0.582,0.002,0.582,0.6
					c0,2.219-0.001,4.438,0.001,6.657c0.001,1.192,0.58,1.771,1.768,1.771c8.013,0.001,16.027,0.001,24.04,0
					c1.168,0,1.755-0.583,1.757-1.745c0.002-2.256,0-4.512,0.001-6.768c0-0.512,0.002-0.511,0.52-0.515
					c0.271-0.002,0.541,0.008,0.809-0.058c0.996-0.246,1.69-1.044,1.694-2.069C261.059,438.696,261.061,434.997,261.044,431.299z
					 M232.593,417.162c5.337,0,10.674,0,16.01,0c0.548,0,0.554,0.007,0.554,0.561c0.001,2.243-0.001,4.486,0.001,6.73
					c0.001,0.811,0.249,1.059,1.06,1.059c1.91,0.001,3.821,0,5.731,0.001c0.458,0,0.479,0.021,0.481,0.483
					c0.003,0.887,0.002,1.775,0,2.662c-0.001,0.477-0.024,0.498-0.504,0.499c-3.895,0.001-7.79,0-11.684,0
					c-3.882,0-7.765,0-11.647,0c-0.55,0-0.552-0.001-0.552-0.561c-0.001-3.624-0.001-7.247,0-10.871
					C232.042,417.166,232.047,417.162,232.593,417.162z M255.878,451.579c-3.883,0.001-7.766,0-11.65,0c-3.871,0-7.742,0-11.613,0
					c-0.572,0-0.574-0.002-0.574-0.579c-0.001-1.997-0.001-3.994,0.001-5.991c0-0.464,0.023-0.486,0.478-0.487
					c7.803-0.001,15.607-0.001,23.41,0c0.478,0,0.499,0.02,0.499,0.503c0.002,1.997,0.001,3.994,0,5.991
					C256.431,451.574,256.426,451.579,255.878,451.579z"/>
			</g>
			<g>
				<path style="fill:#FFFFFF;" d="M236.361,440.845c-0.338,0-0.662-0.048-0.971-0.143c-0.309-0.095-0.592-0.239-0.849-0.43
					c-0.257-0.191-0.481-0.425-0.673-0.7c-0.191-0.276-0.342-0.597-0.452-0.965l1.401-0.551c0.103,0.397,0.283,0.726,0.54,0.987
					c0.257,0.261,0.596,0.392,1.015,0.392c0.154,0,0.303-0.02,0.447-0.061c0.143-0.04,0.272-0.099,0.386-0.176
					s0.204-0.175,0.27-0.292c0.066-0.118,0.099-0.254,0.099-0.408c0-0.147-0.026-0.279-0.077-0.397
					c-0.051-0.117-0.138-0.227-0.259-0.331c-0.121-0.103-0.28-0.202-0.475-0.298c-0.195-0.095-0.435-0.195-0.722-0.298l-0.485-0.176
					c-0.213-0.073-0.429-0.173-0.645-0.298c-0.217-0.125-0.413-0.276-0.59-0.452c-0.177-0.176-0.322-0.384-0.436-0.623
					c-0.114-0.239-0.171-0.509-0.171-0.81c0-0.309,0.06-0.597,0.182-0.866c0.121-0.268,0.294-0.503,0.518-0.706
					c0.224-0.202,0.492-0.36,0.805-0.474s0.66-0.171,1.042-0.171c0.397,0,0.74,0.053,1.031,0.16
					c0.291,0.107,0.537,0.243,0.739,0.408c0.202,0.165,0.366,0.348,0.491,0.546c0.125,0.199,0.217,0.386,0.276,0.563l-1.312,0.551
					c-0.074-0.221-0.208-0.419-0.402-0.596c-0.195-0.176-0.462-0.265-0.8-0.265c-0.324,0-0.592,0.075-0.805,0.226
					c-0.213,0.151-0.32,0.348-0.32,0.59c0,0.235,0.103,0.436,0.309,0.601c0.206,0.165,0.533,0.325,0.982,0.48l0.497,0.165
					c0.316,0.111,0.605,0.237,0.866,0.381c0.261,0.143,0.485,0.314,0.673,0.513c0.187,0.199,0.331,0.425,0.43,0.678
					c0.1,0.254,0.149,0.546,0.149,0.877c0,0.412-0.083,0.767-0.248,1.064c-0.165,0.298-0.377,0.542-0.634,0.734
					c-0.258,0.191-0.548,0.335-0.872,0.43C236.986,440.797,236.67,440.845,236.361,440.845z"/>
				<path style="fill:#FFFFFF;" d="M239.516,432.771h1.61l1.633,4.754l0.287,1.015h0.088l0.309-1.015l1.699-4.754h1.61l-2.879,7.897
					h-1.566L239.516,432.771z"/>
				<path style="fill:#FFFFFF;" d="M251.097,436.334h3.871c0.022,0.089,0.04,0.195,0.055,0.32c0.015,0.125,0.023,0.25,0.023,0.375
					c0,0.507-0.078,0.985-0.232,1.434c-0.154,0.449-0.397,0.849-0.728,1.202c-0.353,0.375-0.775,0.666-1.268,0.871
					c-0.493,0.206-1.055,0.309-1.688,0.309c-0.574,0-1.114-0.103-1.621-0.309c-0.507-0.206-0.949-0.492-1.324-0.86
					c-0.375-0.367-0.673-0.803-0.894-1.307c-0.22-0.504-0.331-1.053-0.331-1.649c0-0.595,0.11-1.145,0.331-1.649
					c0.221-0.504,0.518-0.939,0.894-1.307c0.375-0.367,0.816-0.654,1.324-0.86c0.507-0.206,1.047-0.309,1.621-0.309
					c0.64,0,1.211,0.11,1.715,0.331c0.504,0.221,0.936,0.526,1.296,0.915l-1.026,1.004c-0.257-0.272-0.544-0.48-0.861-0.623
					c-0.316-0.143-0.694-0.215-1.136-0.215c-0.36,0-0.702,0.065-1.026,0.193c-0.323,0.129-0.607,0.311-0.849,0.546
					c-0.243,0.235-0.436,0.52-0.579,0.855c-0.143,0.335-0.215,0.708-0.215,1.119c0,0.412,0.072,0.785,0.215,1.12
					c0.143,0.335,0.338,0.62,0.585,0.855c0.246,0.235,0.531,0.418,0.854,0.546c0.324,0.129,0.669,0.193,1.037,0.193
					c0.419,0,0.774-0.061,1.064-0.182c0.29-0.121,0.539-0.278,0.745-0.469c0.147-0.132,0.274-0.3,0.38-0.502
					c0.107-0.202,0.189-0.428,0.248-0.678h-2.482V436.334z"/>
			</g>
			<g>
				<path style="fill:#FFFFFF;" d="M297.3,431.299c-0.006-1.224-0.959-2.121-2.189-2.14c-0.924-0.014-0.832,0.12-0.834-0.867
					c-0.003-1.097-0.007-2.194,0.003-3.292c0.003-0.379-0.112-0.691-0.362-0.976c-2.342-2.668-4.678-5.342-7.019-8.011
					c-0.12-0.137-0.275-0.244-0.414-0.366c-6.214,0-12.427,0-18.641,0c-0.794,0.293-1.14,0.868-1.138,1.709
					c0.01,3.748,0.004,7.496,0.004,11.243c0,0.556-0.003,0.589-0.55,0.551c-1.497-0.102-2.516,0.986-2.497,2.492
					c0.044,3.476,0.013,6.953,0.014,10.429c0.001,1.58,0.867,2.443,2.45,2.449c0.582,0.002,0.582,0.002,0.582,0.6
					c0,2.219-0.001,4.438,0.001,6.657c0.001,1.192,0.58,1.771,1.768,1.771c8.013,0.001,16.027,0.001,24.04,0
					c1.168,0,1.755-0.583,1.757-1.745c0.002-2.256,0-4.512,0.001-6.768c0-0.512,0.002-0.511,0.52-0.515
					c0.271-0.002,0.541,0.008,0.809-0.058c0.996-0.246,1.69-1.044,1.694-2.069C297.315,438.696,297.318,434.997,297.3,431.299z
					 M268.85,417.162c5.337,0,10.674,0,16.01,0c0.548,0,0.554,0.007,0.554,0.561c0.001,2.243-0.001,4.486,0.001,6.73
					c0.001,0.811,0.249,1.059,1.06,1.059c1.91,0.001,3.821,0,5.731,0.001c0.458,0,0.479,0.021,0.481,0.483
					c0.003,0.887,0.002,1.775,0,2.662c-0.001,0.477-0.024,0.498-0.504,0.499c-3.895,0.001-7.79,0-11.684,0
					c-3.882,0-7.765,0-11.647,0c-0.55,0-0.552-0.001-0.552-0.561c-0.001-3.624-0.001-7.247,0-10.871
					C268.299,417.166,268.303,417.162,268.85,417.162z M292.135,451.579c-3.883,0.001-7.766,0-11.65,0c-3.871,0-7.742,0-11.613,0
					c-0.572,0-0.574-0.002-0.574-0.579c-0.001-1.997-0.001-3.994,0.001-5.991c0-0.464,0.023-0.486,0.478-0.487
					c7.803-0.001,15.607-0.001,23.41,0c0.478,0,0.499,0.02,0.499,0.503c0.001,1.997,0.001,3.994,0,5.991
					C292.687,451.574,292.682,451.579,292.135,451.579z"/>
			</g>
			<g>
				<path style="fill:#FFFFFF;" d="M272.966,434.183v1.831h3.165v1.412h-3.165v1.831h3.518v1.412h-5.007v-7.897h5.007v1.412H272.966
					z"/>
				<path style="fill:#FFFFFF;" d="M277.852,440.669v-7.897h2.779c0.375,0,0.726,0.061,1.053,0.182
					c0.327,0.121,0.612,0.292,0.855,0.513c0.243,0.221,0.434,0.483,0.574,0.789c0.14,0.305,0.209,0.642,0.209,1.009
					c0,0.375-0.07,0.715-0.209,1.02c-0.14,0.305-0.331,0.568-0.574,0.789c-0.243,0.221-0.528,0.392-0.855,0.513
					c-0.327,0.121-0.678,0.182-1.053,0.182h-1.29v2.901H277.852z M280.653,436.356c0.389,0,0.684-0.111,0.882-0.331
					c0.199-0.22,0.298-0.474,0.298-0.761c0-0.14-0.024-0.276-0.072-0.408c-0.048-0.132-0.121-0.248-0.221-0.347
					c-0.099-0.099-0.222-0.178-0.37-0.237c-0.147-0.059-0.32-0.089-0.518-0.089h-1.312v2.173H280.653z"/>
				<path style="fill:#FFFFFF;" d="M286.797,440.845c-0.338,0-0.662-0.048-0.971-0.143c-0.309-0.095-0.592-0.239-0.849-0.43
					c-0.257-0.191-0.482-0.425-0.673-0.7c-0.191-0.276-0.342-0.597-0.452-0.965l1.401-0.551c0.103,0.397,0.283,0.726,0.541,0.987
					c0.257,0.261,0.595,0.392,1.015,0.392c0.154,0,0.303-0.02,0.447-0.061c0.143-0.04,0.272-0.099,0.386-0.176
					c0.114-0.077,0.204-0.175,0.27-0.292c0.066-0.118,0.1-0.254,0.1-0.408c0-0.147-0.026-0.279-0.077-0.397
					c-0.051-0.117-0.138-0.227-0.259-0.331c-0.121-0.103-0.279-0.202-0.474-0.298c-0.195-0.095-0.436-0.195-0.723-0.298
					l-0.485-0.176c-0.213-0.073-0.428-0.173-0.645-0.298c-0.217-0.125-0.414-0.276-0.59-0.452c-0.176-0.176-0.322-0.384-0.436-0.623
					c-0.114-0.239-0.171-0.509-0.171-0.81c0-0.309,0.061-0.597,0.182-0.866c0.121-0.268,0.294-0.503,0.518-0.706
					c0.224-0.202,0.493-0.36,0.805-0.474c0.312-0.114,0.66-0.171,1.042-0.171c0.397,0,0.741,0.053,1.031,0.16
					c0.29,0.107,0.537,0.243,0.739,0.408c0.202,0.165,0.365,0.348,0.491,0.546c0.125,0.199,0.217,0.386,0.276,0.563l-1.312,0.551
					c-0.074-0.221-0.208-0.419-0.403-0.596c-0.195-0.176-0.462-0.265-0.799-0.265c-0.324,0-0.592,0.075-0.805,0.226
					c-0.213,0.151-0.32,0.348-0.32,0.59c0,0.235,0.103,0.436,0.309,0.601c0.206,0.165,0.533,0.325,0.982,0.48l0.496,0.165
					c0.316,0.111,0.605,0.237,0.866,0.381c0.261,0.143,0.485,0.314,0.673,0.513c0.187,0.199,0.331,0.425,0.43,0.678
					c0.099,0.254,0.149,0.546,0.149,0.877c0,0.412-0.083,0.767-0.248,1.064c-0.165,0.298-0.377,0.542-0.634,0.734
					c-0.258,0.191-0.548,0.335-0.872,0.43C287.422,440.797,287.105,440.845,286.797,440.845z"/>
			</g>
			<g>
				<path style="fill:#FFFFFF;" d="M321.394,439.168l4.004-4.985h-3.827v-1.412h5.559v1.5l-3.96,4.985h4.004v1.412h-5.779V439.168z"
					/>
				<path style="fill:#FFFFFF;" d="M328.409,432.771h1.489v7.897h-1.489V432.771z"/>
				<path style="fill:#FFFFFF;" d="M331.486,440.669v-7.897h2.779c0.375,0,0.726,0.061,1.053,0.182
					c0.327,0.121,0.612,0.292,0.855,0.513s0.434,0.483,0.574,0.789c0.14,0.305,0.209,0.642,0.209,1.009
					c0,0.375-0.07,0.715-0.209,1.02c-0.14,0.305-0.331,0.568-0.574,0.789c-0.243,0.221-0.528,0.392-0.855,0.513
					c-0.327,0.121-0.678,0.182-1.053,0.182h-1.29v2.901H331.486z M334.288,436.356c0.389,0,0.684-0.111,0.882-0.331
					c0.199-0.22,0.298-0.474,0.298-0.761c0-0.14-0.024-0.276-0.072-0.408c-0.048-0.132-0.121-0.248-0.221-0.347
					c-0.099-0.099-0.222-0.178-0.37-0.237c-0.147-0.059-0.32-0.089-0.518-0.089h-1.312v2.173H334.288z"/>
			</g>
		</g>
		<g style="opacity:0.61;">
			<path style="fill:#FFFFFF;" d="M300.133,433.27h9.067v2.242h-9.067V433.27z M300.133,437.136h9.067v2.243h-9.067V437.136z"/>
		</g>
	</g>
	<g style="opacity:0.61;">
		<path style="fill:#FFFFFF;" d="M156.756,478.878h1.607c1.263,0,2.114,0.812,2.114,1.974c0,1.161-0.851,1.973-2.114,1.973h-1.607
			V478.878z M158.34,482.464c1.049,0,1.725-0.665,1.725-1.612c0-0.947-0.677-1.613-1.725-1.613h-1.167v3.225H158.34z"/>
		<path style="fill:#FFFFFF;" d="M165.139,480.851c0-1.15,0.879-2.007,2.075-2.007c1.184,0,2.069,0.851,2.069,2.007
			c0,1.156-0.885,2.007-2.069,2.007C166.019,482.858,165.139,482.002,165.139,480.851z M168.866,480.851
			c0-0.942-0.705-1.635-1.652-1.635c-0.953,0-1.663,0.693-1.663,1.635c0,0.941,0.71,1.635,1.663,1.635
			C168.162,482.486,168.866,481.793,168.866,480.851z"/>
		<path style="fill:#FFFFFF;" d="M179.596,478.878l-1.331,3.947h-0.44l-1.156-3.366l-1.161,3.366h-0.434l-1.331-3.947h0.429
			l1.139,3.394l1.178-3.394h0.389l1.161,3.411l1.156-3.411H179.596z"/>
		<path style="fill:#FFFFFF;" d="M187.731,478.878v3.947h-0.344l-2.537-3.202v3.202h-0.417v-3.947h0.344l2.543,3.203v-3.203H187.731
			z"/>
		<path style="fill:#FFFFFF;" d="M193.093,478.878h0.417v3.586h2.21v0.361h-2.627V478.878z"/>
		<path style="fill:#FFFFFF;" d="M200.061,480.851c0-1.15,0.879-2.007,2.075-2.007c1.184,0,2.069,0.851,2.069,2.007
			c0,1.156-0.885,2.007-2.069,2.007C200.941,482.858,200.061,482.002,200.061,480.851z M203.788,480.851
			c0-0.942-0.705-1.635-1.652-1.635c-0.953,0-1.663,0.693-1.663,1.635c0,0.941,0.71,1.635,1.663,1.635
			C203.083,482.486,203.788,481.793,203.788,480.851z"/>
		<path style="fill:#FFFFFF;" d="M211.636,481.77h-2.199l-0.474,1.054h-0.434l1.804-3.947h0.412l1.804,3.947h-0.44L211.636,481.77z
			 M211.484,481.432l-0.947-2.12l-0.947,2.12H211.484z"/>
		<path style="fill:#FFFFFF;" d="M217.28,478.878h1.607c1.263,0,2.114,0.812,2.114,1.974c0,1.161-0.851,1.973-2.114,1.973h-1.607
			V478.878z M218.864,482.464c1.049,0,1.725-0.665,1.725-1.612c0-0.947-0.677-1.613-1.725-1.613h-1.167v3.225H218.864z"/>
		<path style="fill:#FFFFFF;" d="M234.041,481.77h-2.199l-0.474,1.054h-0.434l1.804-3.947h0.412l1.804,3.947h-0.44L234.041,481.77z
			 M233.889,481.432l-0.947-2.12l-0.947,2.12H233.889z"/>
		<path style="fill:#FFFFFF;" d="M239.685,478.878h0.417v3.586h2.21v0.361h-2.627V478.878z"/>
		<path style="fill:#FFFFFF;" d="M247.082,478.878h0.417v3.586h2.21v0.361h-2.627V478.878z"/>
		<path style="fill:#FFFFFF;" d="M260.449,479.239v1.551h2.041v0.361h-2.041v1.675h-0.417v-3.947h2.706v0.361H260.449z"/>
		<path style="fill:#FFFFFF;" d="M267.678,478.878h0.417v3.947h-0.417V478.878z"/>
		<path style="fill:#FFFFFF;" d="M273.456,478.878h0.417v3.586h2.21v0.361h-2.627V478.878z"/>
		<path style="fill:#FFFFFF;" d="M283.644,482.464v0.361h-2.791v-3.947h2.706v0.361h-2.289v1.404h2.041v0.355h-2.041v1.466H283.644z
			"/>
		<path style="fill:#FFFFFF;" d="M294.672,479.239v1.551h2.041v0.361h-2.041v1.675h-0.417v-3.947h2.706v0.361H294.672z"/>
		<path style="fill:#FFFFFF;" d="M301.5,480.851c0-1.15,0.879-2.007,2.075-2.007c1.184,0,2.069,0.851,2.069,2.007
			c0,1.156-0.885,2.007-2.069,2.007C302.379,482.858,301.5,482.002,301.5,480.851z M305.226,480.851
			c0-0.942-0.705-1.635-1.652-1.635c-0.953,0-1.663,0.693-1.663,1.635c0,0.941,0.71,1.635,1.663,1.635
			C304.522,482.486,305.226,481.793,305.226,480.851z"/>
		<path style="fill:#FFFFFF;" d="M313.351,482.825l-0.902-1.269c-0.102,0.011-0.203,0.017-0.316,0.017h-1.06v1.252h-0.417v-3.947
			h1.477c1.004,0,1.613,0.507,1.613,1.353c0,0.62-0.327,1.054-0.902,1.24l0.964,1.353H313.351z M313.328,480.231
			c0-0.632-0.417-0.992-1.207-0.992h-1.048v1.979h1.048C312.911,481.218,313.328,480.851,313.328,480.231z"/>
		<path style="fill:#FFFFFF;" d="M322.907,478.878v3.947h-0.4v-3.158l-1.551,2.656h-0.197l-1.551-2.639v3.14h-0.4v-3.947h0.344
			l1.714,2.926l1.697-2.926H322.907z"/>
		<path style="fill:#FFFFFF;" d="M330.744,481.77h-2.199l-0.473,1.054h-0.434l1.804-3.947h0.411l1.804,3.947h-0.44L330.744,481.77z
			 M330.592,481.432l-0.947-2.12l-0.947,2.12H330.592z"/>
		<path style="fill:#FFFFFF;" d="M336.957,479.239h-1.387v-0.361h3.192v0.361h-1.387v3.586h-0.417V479.239z"/>
		<path style="fill:#FFFFFF;" d="M343.063,482.346l0.164-0.321c0.282,0.276,0.784,0.479,1.302,0.479c0.739,0,1.06-0.31,1.06-0.699
			c0-1.083-2.43-0.417-2.43-1.877c0-0.581,0.451-1.083,1.455-1.083c0.446,0,0.908,0.13,1.224,0.35l-0.141,0.333
			c-0.338-0.22-0.733-0.327-1.083-0.327c-0.722,0-1.043,0.321-1.043,0.716c0,1.083,2.43,0.429,2.43,1.866
			c0,0.581-0.462,1.077-1.472,1.077C343.937,482.858,343.356,482.65,343.063,482.346z"/>
	</g>
</g>
<g>
</g>
<g>
	<path style="fill-rule:evenodd;clip-rule:evenodd;fill:#231F20;" d="M34.613,448.55v0.609H25v-0.609h0.796
		c0.931,0,1.602-0.271,2.025-0.807c0.265-0.355,0.395-1.202,0.395-2.544v-14.521c0-1.134-0.074-1.884-0.214-2.245
		c-0.113-0.277-0.339-0.513-0.683-0.711c-0.485-0.265-0.993-0.395-1.523-0.395H25v-0.609h9.613v0.609h-0.807
		c-0.914,0-1.58,0.271-1.997,0.807c-0.276,0.355-0.412,1.201-0.412,2.544v14.521c0,1.134,0.074,1.884,0.215,2.245
		c0.107,0.277,0.338,0.513,0.694,0.711c0.474,0.265,0.971,0.395,1.501,0.395H34.613z"/>
	<path style="fill-rule:evenodd;clip-rule:evenodd;fill:#231F20;" d="M49.879,436.731c1.771-2.115,3.458-3.176,5.06-3.176
		c0.824,0,1.534,0.209,2.127,0.621c0.598,0.412,1.066,1.094,1.422,2.042c0.243,0.666,0.361,1.681,0.361,3.046v6.477
		c0,0.953,0.079,1.597,0.231,1.94c0.119,0.271,0.316,0.485,0.581,0.637c0.271,0.152,0.767,0.232,1.489,0.232v0.609h-7.48v-0.609
		h0.316c0.699,0,1.19-0.107,1.472-0.322c0.277-0.214,0.474-0.53,0.581-0.942c0.045-0.164,0.068-0.683,0.068-1.546v-6.234
		c0-1.382-0.181-2.392-0.536-3.018c-0.355-0.626-0.953-0.936-1.799-0.936c-1.303,0-2.601,0.717-3.892,2.155v8.033
		c0,1.021,0.062,1.647,0.181,1.89c0.158,0.316,0.372,0.547,0.643,0.699c0.271,0.147,0.818,0.22,1.647,0.22v0.609h-7.514v-0.609
		h0.333c0.773,0,1.292-0.192,1.563-0.581c0.271-0.389,0.406-1.134,0.406-2.228v-5.619c0-1.816-0.039-2.922-0.124-3.317
		c-0.085-0.401-0.209-0.672-0.378-0.813c-0.169-0.141-0.4-0.214-0.683-0.214c-0.31,0-0.677,0.085-1.105,0.248l-0.248-0.609
		l4.57-1.862h0.711V436.731z"/>
	<path style="fill-rule:evenodd;clip-rule:evenodd;fill:#231F20;" d="M81.12,433.555v5.145h-0.542
		c-0.418-1.613-0.953-2.708-1.608-3.289c-0.649-0.581-1.484-0.875-2.494-0.875c-0.767,0-1.388,0.203-1.862,0.609
		c-0.468,0.406-0.705,0.858-0.705,1.354c0,0.615,0.175,1.145,0.519,1.585c0.339,0.451,1.032,0.931,2.076,1.439l2.414,1.168
		c2.234,1.094,3.351,2.533,3.351,4.316c0,1.377-0.519,2.488-1.563,3.329c-1.038,0.84-2.206,1.263-3.492,1.263
		c-0.925,0-1.986-0.163-3.17-0.485c-0.367-0.107-0.665-0.158-0.897-0.158c-0.248,0-0.451,0.135-0.592,0.406h-0.541v-5.416h0.541
		c0.31,1.546,0.897,2.713,1.771,3.498c0.869,0.784,1.845,1.173,2.928,1.173c0.756,0,1.376-0.22,1.856-0.665
		c0.48-0.446,0.722-0.987,0.722-1.614c0-0.756-0.271-1.393-0.807-1.912c-0.536-0.519-1.602-1.168-3.204-1.958
		c-1.597-0.79-2.64-1.5-3.137-2.144c-0.491-0.626-0.739-1.422-0.739-2.381c0-1.247,0.429-2.29,1.281-3.131
		c0.852-0.841,1.952-1.258,3.306-1.258c0.598,0,1.315,0.13,2.166,0.389c0.558,0.17,0.931,0.254,1.117,0.254
		c0.181,0,0.316-0.04,0.417-0.119c0.096-0.079,0.215-0.254,0.344-0.525H81.12z"/>
	<path style="fill-rule:evenodd;clip-rule:evenodd;fill:#231F20;" d="M92.397,435.484l4.654-1.862h0.626v3.509
		c0.784-1.32,1.568-2.251,2.358-2.782c0.79-0.53,1.619-0.795,2.494-0.795c1.523,0,2.792,0.592,3.808,1.783
		c1.247,1.455,1.867,3.351,1.867,5.686c0,2.612-0.75,4.767-2.251,6.476c-1.235,1.399-2.793,2.099-4.665,2.099
		c-0.818,0-1.523-0.113-2.121-0.344c-0.44-0.164-0.936-0.491-1.489-0.987v4.615c0,1.044,0.062,1.704,0.192,1.986
		c0.124,0.282,0.35,0.508,0.666,0.677c0.31,0.164,0.886,0.248,1.715,0.248v0.609h-7.954v-0.609h0.417
		c0.609,0.011,1.128-0.102,1.557-0.344c0.214-0.124,0.378-0.316,0.491-0.587c0.119-0.265,0.175-0.953,0.175-2.048v-14.385
		c0-0.97-0.045-1.585-0.13-1.845c-0.09-0.265-0.231-0.462-0.423-0.592c-0.192-0.13-0.451-0.197-0.784-0.197
		c-0.26,0-0.598,0.079-1.005,0.231L92.397,435.484L92.397,435.484z M97.677,438.113v5.664c0,1.23,0.051,2.036,0.147,2.42
		c0.158,0.643,0.536,1.207,1.134,1.692c0.604,0.485,1.365,0.728,2.279,0.728c1.106,0,1.997-0.429,2.68-1.292
		c0.897-1.128,1.342-2.713,1.342-4.756c0-2.319-0.507-4.107-1.523-5.354c-0.705-0.863-1.546-1.292-2.516-1.292
		c-0.53,0-1.055,0.13-1.574,0.395C99.251,436.522,98.591,437.115,97.677,438.113z"/>
	<path style="fill-rule:evenodd;clip-rule:evenodd;fill:#231F20;" d="M123.261,425.635c0.457,0,0.852,0.164,1.179,0.485
		c0.322,0.327,0.485,0.722,0.485,1.179c0,0.462-0.164,0.863-0.485,1.19c-0.327,0.333-0.722,0.496-1.179,0.496
		c-0.462,0-0.863-0.164-1.19-0.496c-0.333-0.327-0.496-0.728-0.496-1.19c0-0.457,0.164-0.852,0.485-1.179
		C122.386,425.798,122.787,425.635,123.261,425.635L123.261,425.635z M124.62,433.555v12.185c0,0.942,0.068,1.568,0.209,1.878
		c0.136,0.316,0.339,0.547,0.609,0.699c0.271,0.152,0.767,0.232,1.483,0.232v0.609h-7.345v-0.609c0.733,0,1.23-0.074,1.478-0.214
		c0.254-0.141,0.451-0.378,0.603-0.705c0.147-0.327,0.22-0.959,0.22-1.89v-5.856c0-1.63-0.051-2.685-0.147-3.17
		c-0.079-0.35-0.197-0.592-0.367-0.728c-0.164-0.141-0.389-0.209-0.671-0.209c-0.31,0-0.683,0.085-1.123,0.248l-0.231-0.609
		l4.552-1.862H124.62z"/>
	<path style="fill-rule:evenodd;clip-rule:evenodd;fill:#231F20;" d="M142.216,433.555v3.419c1.258-2.279,2.55-3.419,3.876-3.419
		c0.598,0,1.094,0.186,1.489,0.559c0.395,0.366,0.592,0.795,0.592,1.28c0,0.435-0.141,0.801-0.423,1.1
		c-0.288,0.299-0.626,0.446-1.015,0.446c-0.384,0-0.812-0.192-1.286-0.576c-0.479-0.384-0.835-0.575-1.06-0.575
		c-0.197,0-0.412,0.113-0.643,0.333c-0.491,0.451-1.004,1.201-1.529,2.24v7.243c0,0.841,0.107,1.484,0.316,1.912
		c0.141,0.299,0.395,0.547,0.756,0.739c0.367,0.197,0.886,0.293,1.568,0.293v0.609h-7.751v-0.609c0.767,0,1.337-0.119,1.71-0.361
		c0.276-0.181,0.468-0.457,0.575-0.846c0.056-0.186,0.085-0.722,0.085-1.602v-5.856c0-1.76-0.034-2.804-0.107-3.142
		c-0.074-0.333-0.203-0.581-0.395-0.734c-0.192-0.152-0.434-0.231-0.717-0.231c-0.344,0-0.728,0.085-1.156,0.248l-0.164-0.609
		l4.586-1.862H142.216z"/>
	<path style="fill-rule:evenodd;clip-rule:evenodd;fill:#231F20;" d="M161.875,425.635c0.457,0,0.852,0.164,1.179,0.485
		c0.322,0.327,0.485,0.722,0.485,1.179c0,0.462-0.164,0.863-0.485,1.19c-0.327,0.333-0.722,0.496-1.179,0.496
		c-0.462,0-0.863-0.164-1.19-0.496c-0.333-0.327-0.496-0.728-0.496-1.19c0-0.457,0.164-0.852,0.485-1.179
		C161.001,425.798,161.402,425.635,161.875,425.635L161.875,425.635z M163.235,433.555v12.185c0,0.942,0.068,1.568,0.209,1.878
		c0.136,0.316,0.339,0.547,0.609,0.699c0.271,0.152,0.767,0.232,1.483,0.232v0.609h-7.345v-0.609c0.733,0,1.23-0.074,1.478-0.214
		c0.254-0.141,0.451-0.378,0.603-0.705c0.147-0.327,0.22-0.959,0.22-1.89v-5.856c0-1.63-0.051-2.685-0.147-3.17
		c-0.079-0.35-0.197-0.592-0.367-0.728c-0.163-0.141-0.389-0.209-0.671-0.209c-0.31,0-0.683,0.085-1.123,0.248l-0.231-0.609
		l4.553-1.862H163.235z"/>
	<path style="fill-rule:evenodd;clip-rule:evenodd;fill:#231F20;" d="M180.797,436.731c1.771-2.115,3.458-3.176,5.06-3.176
		c0.824,0,1.534,0.209,2.127,0.621c0.598,0.412,1.066,1.094,1.422,2.042c0.243,0.666,0.361,1.681,0.361,3.046v6.477
		c0,0.953,0.079,1.597,0.231,1.94c0.119,0.271,0.316,0.485,0.581,0.637c0.271,0.152,0.767,0.232,1.489,0.232v0.609h-7.48v-0.609
		h0.316c0.699,0,1.19-0.107,1.472-0.322c0.277-0.214,0.474-0.53,0.581-0.942c0.045-0.164,0.068-0.683,0.068-1.546v-6.234
		c0-1.382-0.181-2.392-0.536-3.018c-0.355-0.626-0.953-0.936-1.799-0.936c-1.303,0-2.601,0.717-3.892,2.155v8.033
		c0,1.021,0.062,1.647,0.181,1.89c0.158,0.316,0.372,0.547,0.643,0.699c0.271,0.147,0.818,0.22,1.647,0.22v0.609h-7.514v-0.609
		h0.333c0.773,0,1.292-0.192,1.563-0.581c0.271-0.389,0.406-1.134,0.406-2.228v-5.619c0-1.816-0.039-2.922-0.124-3.317
		c-0.085-0.401-0.209-0.672-0.378-0.813c-0.169-0.141-0.4-0.214-0.683-0.214c-0.31,0-0.677,0.085-1.105,0.248l-0.248-0.609
		l4.57-1.862h0.711V436.731z"/>
	<path style="fill-rule:evenodd;clip-rule:evenodd;fill:#231F20;" d="M206.307,443.602c-0.92-0.451-1.63-1.078-2.127-1.89
		c-0.491-0.807-0.739-1.698-0.739-2.68c0-1.495,0.564-2.781,1.692-3.858c1.123-1.078,2.567-1.619,4.327-1.619
		c1.438,0,2.685,0.35,3.74,1.049h3.199c0.474,0,0.75,0.011,0.824,0.04c0.079,0.028,0.135,0.073,0.163,0.141
		c0.068,0.101,0.102,0.276,0.102,0.53c0,0.288-0.028,0.485-0.085,0.598c-0.028,0.051-0.09,0.096-0.17,0.13
		c-0.085,0.034-0.361,0.051-0.835,0.051h-1.969c0.615,0.79,0.925,1.805,0.925,3.041c0,1.405-0.536,2.612-1.614,3.616
		c-1.077,0.998-2.521,1.501-4.338,1.501c-0.745,0-1.506-0.113-2.29-0.333c-0.479,0.423-0.807,0.79-0.981,1.106
		c-0.169,0.316-0.254,0.581-0.254,0.801c0,0.192,0.09,0.372,0.271,0.547c0.186,0.181,0.542,0.305,1.066,0.384
		c0.31,0.045,1.083,0.09,2.319,0.124c2.268,0.056,3.74,0.141,4.411,0.248c1.027,0.141,1.845,0.525,2.454,1.139
		c0.615,0.621,0.919,1.377,0.919,2.285c0,1.241-0.581,2.414-1.748,3.503c-1.721,1.608-3.961,2.414-6.725,2.414
		c-2.127,0-3.921-0.48-5.382-1.438c-0.829-0.553-1.241-1.128-1.241-1.721c0-0.265,0.062-0.53,0.181-0.795
		c0.186-0.406,0.575-0.976,1.156-1.704c0.079-0.101,0.638-0.694,1.687-1.788c-0.575-0.344-0.976-0.649-1.213-0.919
		c-0.237-0.271-0.355-0.581-0.355-0.925c0-0.389,0.158-0.841,0.468-1.365C204.456,445.295,205.178,444.556,206.307,443.602
		L206.307,443.602z M209.183,434.367c-0.812,0-1.495,0.321-2.042,0.97c-0.547,0.649-0.824,1.642-0.824,2.978
		c0,1.738,0.373,3.08,1.123,4.034c0.57,0.728,1.292,1.089,2.172,1.089c0.835,0,1.523-0.31,2.059-0.936
		c0.536-0.626,0.807-1.608,0.807-2.95c0-1.743-0.378-3.108-1.134-4.096C210.78,434.729,210.064,434.367,209.183,434.367
		L209.183,434.367z M206.154,449.159c-0.519,0.558-0.908,1.083-1.168,1.568c-0.265,0.485-0.395,0.931-0.395,1.337
		c0,0.525,0.321,0.987,0.959,1.388c1.094,0.683,2.685,1.021,4.761,1.021c1.98,0,3.441-0.35,4.378-1.049
		c0.942-0.7,1.411-1.444,1.411-2.239c0-0.576-0.282-0.982-0.841-1.224c-0.576-0.243-1.704-0.384-3.396-0.429
		C209.387,449.464,207.486,449.339,206.154,449.159z"/>
	<path style="fill-rule:evenodd;clip-rule:evenodd;fill:#231F20;" d="M253.878,427.936v8.868h4.942c1.281,0,2.133-0.192,2.561-0.576
		c0.576-0.508,0.891-1.399,0.959-2.674h0.609v7.819h-0.609c-0.152-1.094-0.31-1.8-0.462-2.11c-0.198-0.384-0.525-0.688-0.976-0.908
		c-0.451-0.22-1.145-0.333-2.082-0.333h-4.942v7.401c0,0.993,0.045,1.596,0.13,1.811c0.09,0.214,0.242,0.389,0.462,0.513
		c0.22,0.13,0.643,0.192,1.258,0.192h3.797c1.263,0,2.183-0.09,2.759-0.265c0.57-0.175,1.123-0.525,1.647-1.044
		c0.683-0.683,1.382-1.715,2.099-3.091h0.677l-1.935,5.619h-17.291v-0.609h0.795c0.53,0,1.032-0.13,1.506-0.384
		c0.355-0.175,0.598-0.44,0.722-0.796c0.13-0.355,0.192-1.077,0.192-2.172V430.61c0-1.422-0.141-2.296-0.429-2.623
		c-0.401-0.44-1.06-0.66-1.992-0.66h-0.795v-0.609h17.296l0.237,4.942h-0.643c-0.231-1.19-0.485-2.008-0.767-2.454
		c-0.282-0.446-0.699-0.784-1.247-1.021c-0.44-0.164-1.218-0.248-2.33-0.248H253.878z"/>
	<path style="fill-rule:evenodd;clip-rule:evenodd;fill:#231F20;" d="M276.889,433.995h7.074v0.609
		c-0.451,0-0.767,0.079-0.948,0.237c-0.181,0.158-0.271,0.361-0.271,0.621c0,0.271,0.198,0.683,0.598,1.241
		c0.124,0.175,0.305,0.451,0.553,0.824l1.094,1.732l1.247-1.732c0.801-1.077,1.207-1.766,1.213-2.065
		c0-0.237-0.096-0.44-0.282-0.609c-0.186-0.164-0.491-0.248-0.908-0.248v-0.609h5.083v0.609c-0.547,0.034-1.016,0.181-1.416,0.446
		c-0.547,0.372-1.28,1.185-2.211,2.437l-2.07,2.753l3.768,5.472c0.925,1.343,1.585,2.144,1.986,2.415
		c0.395,0.271,0.908,0.423,1.534,0.457v0.576h-7.159v-0.576c0.496,0,0.886-0.113,1.156-0.333c0.209-0.158,0.316-0.361,0.316-0.615
		c0-0.259-0.355-0.902-1.066-1.935l-2.217-3.233l-2.431,3.227c-0.728,1.01-1.089,1.614-1.089,1.805c0,0.265,0.124,0.508,0.372,0.722
		c0.248,0.22,0.621,0.338,1.117,0.361v0.576h-4.942v-0.576c0.395-0.056,0.739-0.192,1.038-0.417c0.418-0.316,1.123-1.134,2.11-2.454
		l3.154-4.236l-2.849-4.169c-0.813-1.19-1.438-1.941-1.884-2.245c-0.446-0.304-0.999-0.457-1.67-0.457V433.995z"/>
	<path style="fill-rule:evenodd;clip-rule:evenodd;fill:#231F20;" d="M316.288,443.399c-0.406,2.003-1.207,3.531-2.398,4.597
		c-1.19,1.066-2.505,1.602-3.949,1.602c-1.721,0-3.221-0.722-4.496-2.166c-1.281-1.438-1.918-3.39-1.918-5.85
		c0-2.375,0.705-4.31,2.121-5.799c1.416-1.484,3.114-2.228,5.094-2.228c1.489,0,2.708,0.395,3.667,1.185
		c0.959,0.784,1.439,1.602,1.439,2.454c0,0.417-0.136,0.756-0.406,1.016c-0.271,0.259-0.643,0.389-1.128,0.389
		c-0.649,0-1.134-0.209-1.455-0.632c-0.198-0.231-0.327-0.677-0.389-1.331c-0.062-0.654-0.282-1.156-0.666-1.5
		c-0.389-0.333-0.919-0.496-1.602-0.496c-1.105,0-1.991,0.406-2.663,1.224c-0.891,1.083-1.337,2.511-1.337,4.293
		c0,1.811,0.446,3.407,1.331,4.795c0.891,1.382,2.087,2.076,3.599,2.076c1.083,0,2.054-0.361,2.911-1.089
		c0.609-0.502,1.196-1.427,1.771-2.77L316.288,443.399z"/>
	<path style="fill-rule:evenodd;clip-rule:evenodd;fill:#231F20;" d="M329.923,439.715c-0.012,2.239,0.536,3.994,1.636,5.269
		c1.1,1.269,2.397,1.907,3.887,1.907c0.987,0,1.851-0.271,2.584-0.813c0.733-0.536,1.348-1.478,1.844-2.809l0.508,0.333
		c-0.231,1.523-0.902,2.905-2.014,4.141c-1.111,1.235-2.505,1.856-4.175,1.856c-1.816,0-3.374-0.705-4.665-2.121
		c-1.292-1.416-1.94-3.317-1.94-5.703c0-2.584,0.665-4.604,1.991-6.048c1.326-1.45,2.99-2.172,4.993-2.172
		c1.692,0,3.086,0.559,4.175,1.676c1.089,1.117,1.636,2.612,1.636,4.485H329.923L329.923,439.715z M329.923,438.768h7.006
		c-0.056-0.97-0.169-1.653-0.344-2.048c-0.277-0.615-0.688-1.1-1.236-1.45c-0.541-0.355-1.111-0.53-1.709-0.53
		c-0.914,0-1.732,0.355-2.454,1.066S330.047,437.504,329.923,438.768z"/>
	<path style="fill-rule:evenodd;clip-rule:evenodd;fill:#231F20;" d="M356.623,425.635v20.106c0,0.942,0.068,1.568,0.203,1.873
		c0.141,0.305,0.35,0.542,0.638,0.7c0.282,0.158,0.818,0.237,1.597,0.237v0.609h-7.413v-0.609c0.694,0,1.168-0.074,1.422-0.214
		c0.254-0.141,0.451-0.378,0.598-0.705c0.141-0.327,0.214-0.959,0.214-1.89v-13.776c0-1.692-0.04-2.731-0.113-3.114
		c-0.079-0.389-0.203-0.654-0.373-0.795c-0.169-0.141-0.389-0.214-0.654-0.214c-0.282,0-0.643,0.09-1.083,0.265l-0.282-0.609
		l4.501-1.862H356.623z"/>
	<path style="fill-rule:evenodd;clip-rule:evenodd;fill:#231F20;" d="M374.997,425.635v20.106c0,0.942,0.068,1.568,0.203,1.873
		c0.141,0.305,0.35,0.542,0.638,0.7c0.282,0.158,0.818,0.237,1.597,0.237v0.609h-7.413v-0.609c0.694,0,1.168-0.074,1.422-0.214
		c0.254-0.141,0.451-0.378,0.598-0.705c0.141-0.327,0.214-0.959,0.214-1.89v-13.776c0-1.692-0.04-2.731-0.113-3.114
		c-0.079-0.389-0.203-0.654-0.373-0.795c-0.169-0.141-0.389-0.214-0.654-0.214c-0.282,0-0.643,0.09-1.083,0.265l-0.282-0.609
		l4.501-1.862H374.997z"/>
	<path style="fill-rule:evenodd;clip-rule:evenodd;fill:#231F20;" d="M390.663,439.715c-0.011,2.239,0.536,3.994,1.636,5.269
		c1.1,1.269,2.398,1.907,3.887,1.907c0.987,0,1.85-0.271,2.584-0.813c0.733-0.536,1.348-1.478,1.844-2.809l0.508,0.333
		c-0.231,1.523-0.903,2.905-2.014,4.141c-1.111,1.235-2.505,1.856-4.175,1.856c-1.816,0-3.374-0.705-4.665-2.121
		c-1.292-1.416-1.94-3.317-1.94-5.703c0-2.584,0.665-4.604,1.991-6.048c1.326-1.45,2.99-2.172,4.993-2.172
		c1.692,0,3.085,0.559,4.175,1.676c1.089,1.117,1.636,2.612,1.636,4.485H390.663L390.663,439.715z M390.663,438.768h7.006
		c-0.056-0.97-0.169-1.653-0.344-2.048c-0.277-0.615-0.688-1.1-1.236-1.45c-0.541-0.355-1.111-0.53-1.709-0.53
		c-0.914,0-1.732,0.355-2.454,1.066S390.787,437.504,390.663,438.768z"/>
	<path style="fill-rule:evenodd;clip-rule:evenodd;fill:#231F20;" d="M416.551,436.731c1.771-2.115,3.458-3.176,5.06-3.176
		c0.824,0,1.534,0.209,2.127,0.621c0.598,0.412,1.066,1.094,1.422,2.042c0.243,0.666,0.361,1.681,0.361,3.046v6.477
		c0,0.953,0.079,1.597,0.231,1.94c0.118,0.271,0.316,0.485,0.581,0.637c0.271,0.152,0.767,0.232,1.489,0.232v0.609h-7.48v-0.609
		h0.316c0.699,0,1.19-0.107,1.472-0.322c0.277-0.214,0.474-0.53,0.581-0.942c0.045-0.164,0.068-0.683,0.068-1.546v-6.234
		c0-1.382-0.181-2.392-0.536-3.018c-0.355-0.626-0.953-0.936-1.799-0.936c-1.303,0-2.601,0.717-3.892,2.155v8.033
		c0,1.021,0.062,1.647,0.181,1.89c0.158,0.316,0.372,0.547,0.643,0.699c0.271,0.147,0.818,0.22,1.647,0.22v0.609h-7.514v-0.609
		h0.333c0.773,0,1.292-0.192,1.563-0.581c0.271-0.389,0.406-1.134,0.406-2.228v-5.619c0-1.816-0.039-2.922-0.124-3.317
		c-0.085-0.401-0.209-0.672-0.378-0.813c-0.169-0.141-0.4-0.214-0.683-0.214c-0.31,0-0.677,0.085-1.105,0.248l-0.248-0.609
		l4.57-1.862h0.711V436.731z"/>
	<path style="fill-rule:evenodd;clip-rule:evenodd;fill:#231F20;" d="M450.906,443.399c-0.406,2.003-1.207,3.531-2.398,4.597
		c-1.19,1.066-2.505,1.602-3.949,1.602c-1.721,0-3.221-0.722-4.496-2.166c-1.281-1.438-1.918-3.39-1.918-5.85
		c0-2.375,0.705-4.31,2.121-5.799c1.416-1.484,3.114-2.228,5.094-2.228c1.489,0,2.708,0.395,3.667,1.185
		c0.959,0.784,1.439,1.602,1.439,2.454c0,0.417-0.136,0.756-0.406,1.016c-0.271,0.259-0.643,0.389-1.128,0.389
		c-0.649,0-1.134-0.209-1.455-0.632c-0.198-0.231-0.327-0.677-0.389-1.331c-0.062-0.654-0.282-1.156-0.666-1.5
		c-0.389-0.333-0.92-0.496-1.602-0.496c-1.106,0-1.991,0.406-2.663,1.224c-0.891,1.083-1.337,2.511-1.337,4.293
		c0,1.811,0.446,3.407,1.331,4.795c0.891,1.382,2.087,2.076,3.599,2.076c1.083,0,2.054-0.361,2.911-1.089
		c0.609-0.502,1.196-1.427,1.771-2.77L450.906,443.399z"/>
	<path style="fill-rule:evenodd;clip-rule:evenodd;fill:#231F20;" d="M464.541,439.715c-0.011,2.239,0.536,3.994,1.636,5.269
		c1.1,1.269,2.397,1.907,3.887,1.907c0.987,0,1.851-0.271,2.584-0.813c0.733-0.536,1.348-1.478,1.845-2.809l0.508,0.333
		c-0.231,1.523-0.902,2.905-2.014,4.141c-1.111,1.235-2.505,1.856-4.175,1.856c-1.816,0-3.374-0.705-4.665-2.121
		c-1.292-1.416-1.94-3.317-1.94-5.703c0-2.584,0.665-4.604,1.991-6.048c1.326-1.45,2.99-2.172,4.993-2.172
		c1.692,0,3.086,0.559,4.175,1.676c1.089,1.117,1.636,2.612,1.636,4.485H464.541L464.541,439.715z M464.541,438.768h7.006
		c-0.056-0.97-0.169-1.653-0.344-2.048c-0.277-0.615-0.688-1.1-1.236-1.45c-0.541-0.355-1.111-0.53-1.709-0.53
		c-0.914,0-1.732,0.355-2.454,1.066C465.083,436.517,464.665,437.504,464.541,438.768z"/>
	<g>
		<path style="fill-rule:evenodd;clip-rule:evenodd;fill:#231F20;" d="M143.497,298.642c0,0,33.261,6.263,60.705,21.368
			c27.445,15.106,45.437,31.224,45.442,31.804c0.005,0.58,17.954-16.865,44.964-31.901c27.01-15.035,60.563-21.271,60.563-21.271
			v13.524c0,0-22.352,3.135-50.832,18.125c-28.48,14.99-45.364,31.782-45.364,31.8l0.007,0.295v9.219l-0.144,0.376l-0.181,0.333
			l-0.234,0.349l-0.271,0.293l-0.336,0.269l-0.34,0.226l-0.38,0.186l-0.353,0.125h-13.428l-0.438-0.089l-0.401-0.128l-0.392-0.17
			l-0.366-0.255l-0.354-0.357l-0.256-0.377l-0.208-0.346l-0.113-0.395v-9.011c0,0-20.199-18.489-42.168-30.315
			c-21.969-11.826-55.211-20.201-55.122-20.156V298.642z"/>
		<path style="fill-rule:evenodd;clip-rule:evenodd;fill:#A6A8AB;" d="M143.497,336.15c0,0,33.261,6.263,60.705,21.368
			c27.445,15.106,45.437,31.224,45.442,31.804c0.005,0.58,17.954-16.865,44.964-31.901c27.01-15.035,60.563-21.271,60.563-21.271
			v13.524c0,0-22.352,3.135-50.832,18.125c-28.48,14.99-45.364,31.782-45.364,31.8l0.007,0.295v9.219l-0.144,0.376l-0.181,0.333
			l-0.234,0.349l-0.271,0.293l-0.336,0.269l-0.34,0.227l-0.38,0.186l-0.353,0.125h-13.428l-0.438-0.089l-0.401-0.128l-0.392-0.17
			l-0.366-0.255l-0.354-0.357l-0.256-0.377l-0.208-0.346l-0.113-0.395v-9.011c0,0-20.199-18.489-42.168-30.315
			c-21.969-11.826-55.211-20.201-55.122-20.155V336.15z"/>
		<path style="fill-rule:evenodd;clip-rule:evenodd;fill:#295CA9;" d="M250,43.53c94.249,0,171.119,76.87,171.119,171.119
			c0,44.311-16.997,84.776-44.799,115.22l-8.47-8.47c25.637-28.265,41.291-65.739,41.291-106.751
			c0-87.65-71.49-159.14-159.14-159.14s-159.14,71.49-159.14,159.14c0,40.877,15.556,78.232,41.04,106.467l-8.478,8.476
			c-27.648-30.415-44.541-70.767-44.541-114.943C78.882,120.4,155.752,43.53,250,43.53z"/>
		<path style="fill-rule:evenodd;clip-rule:evenodd;fill:#231F20;" d="M180.044,165.902c3.635,0.78,6.358,2.011,8.168,3.729
			c2.499,2.378,3.754,5.285,3.754,8.722c0,2.617-0.819,5.128-2.471,7.522c-1.652,2.392-3.911,4.135-6.794,5.233
			c-2.868,1.098-7.257,1.652-13.163,1.652h-24.757v-1.426h1.956c2.182,0,3.74-0.7,4.692-2.09c0.595-0.897,0.885-2.827,0.885-5.762
			v-34.019c0-3.252-0.37-5.302-1.111-6.148c-1.004-1.136-2.483-1.705-4.466-1.705h-1.956v-1.426h22.655
			c4.229,0,7.613,0.303,10.162,0.924c3.873,0.938,6.822,2.579,8.857,4.943c2.036,2.366,3.054,5.075,3.054,8.156
			c0,2.629-0.794,4.982-2.394,7.07C185.517,163.353,183.164,164.898,180.044,165.902L180.044,165.902z M159.768,163.747
			c0.952,0.185,2.049,0.317,3.266,0.411c1.23,0.091,2.576,0.132,4.044,0.132c3.768,0,6.609-0.411,8.499-1.216
			c1.892-0.806,3.345-2.05,4.349-3.727c0.991-1.666,1.493-3.489,1.493-5.472c0-3.067-1.255-5.671-3.754-7.839
			c-2.497-2.154-6.146-3.236-10.929-3.236c-2.579,0-4.904,0.276-6.967,0.844V163.747L159.768,163.747z M159.768,188.94
			c3.001,0.701,5.974,1.045,8.896,1.045c4.692,0,8.275-1.059,10.733-3.158c2.458-2.102,3.688-4.705,3.688-7.8
			c0-2.033-0.569-4.003-1.719-5.881c-1.136-1.889-2.96-3.37-5.459-4.454c-2.499-1.084-5.605-1.625-9.291-1.625
			c-1.6,0-2.962,0.027-4.099,0.08c-1.136,0.052-2.049,0.144-2.75,0.265V188.94z"/>
		<path style="fill-rule:evenodd;clip-rule:evenodd;fill:#231F20;" d="M249.964,192.76h-14.079l-17.855-24.583
			c-1.282,0.053-2.326,0.078-3.133,0.078c-0.331,0-0.687-0.014-1.057-0.025c-0.383-0.014-0.766-0.028-1.177-0.053v15.304
			c0,3.305,0.358,5.354,1.084,6.146c0.979,1.136,2.446,1.707,4.402,1.707h2.049v1.426h-22.522v-1.426h1.969
			c2.221,0,3.807-0.728,4.758-2.168c0.541-0.794,0.806-2.697,0.806-5.685v-34.019c0-3.305-0.356-5.354-1.084-6.148
			c-1.004-1.136-2.499-1.705-4.48-1.705h-1.969v-1.426h19.138c5.591,0,9.701,0.408,12.344,1.216
			c2.659,0.819,4.904,2.325,6.741,4.507c1.851,2.179,2.775,4.783,2.775,7.81c0,3.238-1.056,6.041-3.158,8.421
			c-2.113,2.378-5.365,4.057-9.793,5.048l10.877,15.055c2.485,3.462,4.612,5.776,6.397,6.912c1.771,1.151,4.099,1.865,6.967,2.182
			V192.76L249.964,192.76z M212.663,165.717c0.491,0,0.913,0,1.269,0.014c0.358,0.014,0.648,0.027,0.874,0.027
			c4.957,0,8.697-1.084,11.208-3.252c2.524-2.181,3.779-4.943,3.779-8.3c0-3.28-1.015-5.95-3.04-8.01
			c-2.036-2.05-4.731-3.078-8.074-3.078c-1.481,0-3.489,0.237-6.015,0.712V165.717z"/>
		<path style="fill-rule:evenodd;clip-rule:evenodd;fill:#231F20;" d="M285.556,175.233h-20.368l-3.515,8.234
			c-0.874,2.035-1.322,3.569-1.322,4.573c0,0.794,0.384,1.509,1.148,2.115c0.755,0.596,2.408,0.991,4.932,1.178v1.426h-16.575
			v-1.426c2.193-0.383,3.608-0.888,4.256-1.508c1.321-1.241,2.775-3.766,4.375-7.561l18.49-43.271h1.31l18.28,43.734
			c1.467,3.517,2.802,5.79,4.005,6.846c1.202,1.045,2.866,1.627,5.021,1.76v1.426h-20.724v-1.426
			c2.088-0.107,3.503-0.449,4.242-1.045c0.742-0.596,1.098-1.321,1.098-2.182c0-1.136-0.516-2.932-1.547-5.392L285.556,175.233
			L285.556,175.233z M284.367,172.378l-8.855-21.212l-9.094,21.212H284.367z"/>
		<path style="fill-rule:evenodd;clip-rule:evenodd;fill:#231F20;" d="M354.232,138.993l1.191,17.841h-1.191
			c-1.597-5.34-3.87-9.199-6.833-11.538c-2.96-2.353-6.502-3.528-10.653-3.528c-3.462,0-6.609,0.885-9.412,2.656
			c-2.8,1.771-5.009,4.587-6.62,8.471c-1.6,3.873-2.406,8.697-2.406,14.459c0,4.758,0.753,8.882,2.273,12.371
			c1.52,3.49,3.807,6.16,6.846,8.024c3.054,1.865,6.529,2.789,10.429,2.789c3.396,0,6.397-0.728,8.987-2.182
			c2.604-1.454,5.459-4.347,8.565-8.683l1.203,0.794c-2.632,4.665-5.696,8.074-9.199,10.242c-3.503,2.154-7.666,3.238-12.476,3.238
			c-8.683,0-15.411-3.224-20.169-9.688c-3.556-4.811-5.34-10.468-5.34-16.972c0-5.247,1.175-10.071,3.514-14.459
			c2.339-4.4,5.566-7.798,9.663-10.217c4.11-2.417,8.592-3.619,13.455-3.619c3.779,0,7.508,0.924,11.194,2.789
			c1.073,0.568,1.851,0.858,2.314,0.858c0.687,0,1.296-0.251,1.81-0.739c0.675-0.7,1.15-1.666,1.428-2.907H354.232z"/>
		<path style="fill-rule:evenodd;clip-rule:evenodd;fill:#231F20;" d="M133.505,215.865v-0.854h11.034v0.854h-1.178
			c-1.23,0-2.177,0.513-2.841,1.547c-0.322,0.481-0.481,1.586-0.481,3.33v12.723c0,3.147-0.306,5.587-0.931,7.323
			c-0.623,1.737-1.853,3.227-3.677,4.466c-1.823,1.239-4.302,1.862-7.442,1.862c-3.419,0-6.013-0.591-7.782-1.782
			c-1.776-1.185-3.031-2.787-3.765-4.79c-0.495-1.374-0.742-3.948-0.742-7.727v-12.264c0-1.926-0.267-3.188-0.797-3.788
			c-0.529-0.6-1.39-0.899-2.572-0.899h-1.178v-0.854h13.544v0.854h-1.2c-1.294,0-2.218,0.411-2.77,1.223
			c-0.386,0.552-0.575,1.712-0.575,3.464v13.677c0,1.216,0.11,2.613,0.331,4.19c0.228,1.572,0.632,2.796,1.217,3.679
			c0.591,0.876,1.435,1.602,2.533,2.177c1.104,0.569,2.453,0.854,4.055,0.854c2.052,0,3.891-0.45,5.509-1.342
			c1.618-0.892,2.722-2.045,3.313-3.432c0.593-1.399,0.892-3.766,0.892-7.095v-12.707c0-1.958-0.212-3.181-0.646-3.67
			c-0.6-0.678-1.493-1.018-2.677-1.018H133.505z"/>
		<path style="fill-rule:evenodd;clip-rule:evenodd;fill:#231F20;" d="M144.435,215.011h8.437l19.234,23.574v-18.127
			c0-1.935-0.222-3.143-0.655-3.624c-0.577-0.646-1.492-0.97-2.739-0.97h-1.104v-0.854h11.032v0.854h-1.121
			c-1.349,0-2.296,0.402-2.864,1.207c-0.34,0.498-0.513,1.625-0.513,3.387v26.452h-0.837l-20.66-25.286v19.337
			c0,1.933,0.212,3.14,0.63,3.621c0.593,0.648,1.508,0.972,2.748,0.972h1.121v0.851h-11.034v-0.851h1.107
			c1.355,0,2.312-0.404,2.88-1.21c0.34-0.495,0.513-1.625,0.513-3.384v-21.828c-0.908-1.066-1.602-1.769-2.068-2.109
			c-0.475-0.338-1.162-0.655-2.068-0.954c-0.452-0.135-1.13-0.205-2.038-0.205V215.011z"/>
		<path style="fill-rule:evenodd;clip-rule:evenodd;fill:#231F20;" d="M193.892,245.555v0.851h-13.446v-0.851h1.111
			c1.303,0,2.241-0.379,2.834-1.13c0.37-0.497,0.552-1.682,0.552-3.56v-20.313c0-1.586-0.103-2.636-0.301-3.14
			c-0.157-0.388-0.473-0.719-0.954-0.995c-0.678-0.372-1.39-0.552-2.131-0.552h-1.111v-0.854h13.446v0.854h-1.127
			c-1.278,0-2.209,0.379-2.793,1.127c-0.388,0.498-0.577,1.682-0.577,3.56v20.313c0,1.586,0.103,2.636,0.301,3.143
			c0.148,0.386,0.473,0.717,0.97,0.993c0.664,0.372,1.358,0.554,2.1,0.554H193.892z"/>
		<path style="fill-rule:evenodd;clip-rule:evenodd;fill:#231F20;" d="M228.624,215.011v0.854c-1.105,0.205-1.949,0.559-2.517,1.073
			c-0.812,0.758-1.538,1.926-2.17,3.496l-10.897,26.682h-0.854l-11.734-27.036c-0.6-1.399-1.027-2.25-1.271-2.558
			c-0.386-0.482-0.86-0.861-1.429-1.136c-0.559-0.267-1.317-0.443-2.273-0.52v-0.854h12.801v0.854
			c-1.452,0.142-2.392,0.386-2.825,0.742c-0.427,0.356-0.646,0.806-0.646,1.365c0,0.766,0.354,1.974,1.066,3.608l7.978,18.38
			l7.41-18.152c0.726-1.791,1.088-3.031,1.088-3.724c0-0.443-0.228-0.876-0.671-1.28c-0.449-0.408-1.207-0.701-2.264-0.867
			c-0.08-0.016-0.215-0.039-0.395-0.071v-0.854H228.624z"/>
		<path style="fill-rule:evenodd;clip-rule:evenodd;fill:#231F20;" d="M239.122,216.716v12.408h6.912
			c1.791,0,2.983-0.269,3.583-0.805c0.806-0.71,1.246-1.958,1.342-3.74h0.851v10.938h-0.851c-0.214-1.531-0.434-2.517-0.648-2.953
			c-0.276-0.536-0.733-0.963-1.365-1.269c-0.632-0.308-1.602-0.466-2.912-0.466h-6.912v10.354c0,1.388,0.061,2.232,0.18,2.533
			c0.125,0.299,0.34,0.543,0.648,0.717c0.308,0.183,0.899,0.269,1.76,0.269h5.311c1.769,0,3.053-0.126,3.859-0.37
			c0.797-0.246,1.57-0.735,2.305-1.461c0.954-0.956,1.933-2.401,2.935-4.325h0.947l-2.707,7.86h-24.188v-0.851h1.114
			c0.742,0,1.442-0.183,2.106-0.539c0.497-0.244,0.835-0.614,1.011-1.111c0.181-0.498,0.267-1.509,0.267-3.04v-20.407
			c0-1.99-0.196-3.213-0.6-3.67c-0.559-0.616-1.483-0.924-2.784-0.924h-1.114v-0.854h24.197l0.331,6.915H253.8
			c-0.324-1.666-0.68-2.809-1.075-3.434c-0.393-0.623-0.977-1.096-1.744-1.426c-0.616-0.231-1.705-0.349-3.259-0.349H239.122z"/>
		<path style="fill-rule:evenodd;clip-rule:evenodd;fill:#231F20;" d="M290.173,246.406h-8.405l-10.662-14.679
			c-0.764,0.032-1.388,0.048-1.869,0.048c-0.199,0-0.411-0.009-0.632-0.016c-0.228-0.009-0.459-0.016-0.703-0.032v9.138
			c0,1.974,0.214,3.197,0.648,3.67c0.584,0.68,1.461,1.02,2.627,1.02h1.223v0.851h-13.446v-0.851h1.175
			c1.326,0,2.273-0.436,2.841-1.296c0.324-0.473,0.482-1.609,0.482-3.394v-20.313c0-1.972-0.212-3.197-0.648-3.67
			c-0.6-0.678-1.49-1.018-2.675-1.018h-1.175v-0.854h11.426c3.339,0,5.792,0.246,7.372,0.728c1.586,0.488,2.928,1.388,4.026,2.691
			c1.105,1.301,1.657,2.857,1.657,4.665c0,1.933-0.632,3.606-1.887,5.025c-1.262,1.422-3.204,2.424-5.847,3.015l6.495,8.989
			c1.483,2.068,2.755,3.451,3.82,4.128c1.057,0.687,2.447,1.114,4.158,1.303V246.406L290.173,246.406z M267.902,230.26
			c0.292,0,0.545,0,0.757,0.007c0.215,0.009,0.388,0.016,0.523,0.016c2.958,0,5.192-0.648,6.691-1.942
			c1.509-1.301,2.257-2.951,2.257-4.955c0-1.958-0.607-3.553-1.814-4.783c-1.216-1.223-2.825-1.839-4.822-1.839
			c-0.886,0-2.084,0.142-3.592,0.427V230.26z"/>
		<path style="fill-rule:evenodd;clip-rule:evenodd;fill:#231F20;" d="M311.468,214.301v10.845h-0.854
			c-0.276-2.084-0.774-3.74-1.49-4.973c-0.719-1.23-1.746-2.209-3.078-2.935c-1.326-0.728-2.7-1.091-4.119-1.091
			c-1.611,0-2.937,0.491-3.987,1.47c-1.047,0.977-1.577,2.097-1.577,3.345c0,0.954,0.331,1.83,0.995,2.62
			c0.961,1.152,3.234,2.7,6.833,4.624c2.937,1.579,4.941,2.786,6.013,3.624c1.075,0.844,1.903,1.83,2.478,2.973
			c0.578,1.146,0.869,2.337,0.869,3.592c0,2.375-0.924,4.42-2.764,6.139c-1.846,1.721-4.222,2.581-7.118,2.581
			c-0.915,0-1.769-0.07-2.572-0.212c-0.482-0.08-1.468-0.363-2.976-0.854c-1.499-0.488-2.453-0.733-2.857-0.733
			c-0.386,0-0.694,0.119-0.915,0.347c-0.222,0.237-0.386,0.719-0.497,1.451H293v-10.749h0.852c0.404,2.25,0.94,3.939,1.618,5.051
			c0.678,1.121,1.721,2.054,3.117,2.787c1.396,0.742,2.928,1.113,4.594,1.113c1.926,0,3.455-0.513,4.569-1.531
			c1.12-1.027,1.682-2.234,1.682-3.622c0-0.774-0.215-1.557-0.632-2.344c-0.427-0.79-1.082-1.524-1.974-2.211
			c-0.598-0.465-2.248-1.445-4.939-2.944c-2.693-1.49-4.61-2.691-5.746-3.583c-1.136-0.89-2.004-1.885-2.588-2.958
			c-0.593-1.082-0.886-2.273-0.886-3.569c0-2.248,0.87-4.19,2.597-5.815c1.73-1.627,3.939-2.44,6.607-2.44
			c1.673,0,3.439,0.411,5.31,1.223c0.867,0.388,1.477,0.577,1.83,0.577c0.404,0,0.735-0.119,0.988-0.356
			c0.251-0.244,0.456-0.719,0.614-1.445H311.468z"/>
		<path style="fill-rule:evenodd;clip-rule:evenodd;fill:#231F20;" d="M330.699,245.555v0.851h-13.446v-0.851h1.111
			c1.303,0,2.241-0.379,2.834-1.13c0.37-0.497,0.552-1.682,0.552-3.56v-20.313c0-1.586-0.103-2.636-0.301-3.14
			c-0.157-0.388-0.472-0.719-0.954-0.995c-0.678-0.372-1.39-0.552-2.132-0.552h-1.111v-0.854h13.446v0.854h-1.128
			c-1.278,0-2.209,0.379-2.793,1.127c-0.388,0.498-0.577,1.682-0.577,3.56v20.313c0,1.586,0.103,2.636,0.301,3.143
			c0.148,0.386,0.473,0.717,0.97,0.993c0.664,0.372,1.358,0.554,2.1,0.554H330.699z"/>
		<path style="fill-rule:evenodd;clip-rule:evenodd;fill:#231F20;" d="M359.253,215.011l0.331,7.38h-0.876
			c-0.173-1.294-0.402-2.225-0.694-2.777c-0.482-0.892-1.114-1.557-1.91-1.974c-0.796-0.427-1.839-0.639-3.133-0.639h-4.421v23.96
			c0,1.933,0.205,3.14,0.625,3.621c0.582,0.648,1.483,0.972,2.698,0.972h1.082v0.851h-13.353v-0.851h1.128
			c1.342,0,2.289-0.404,2.857-1.21c0.34-0.495,0.513-1.625,0.513-3.384v-23.96h-3.766c-1.467,0-2.508,0.109-3.124,0.324
			c-0.805,0.292-1.483,0.851-2.061,1.689c-0.569,0.829-0.906,1.956-1.018,3.378h-0.876l0.333-7.38H359.253z"/>
		<path style="fill-rule:evenodd;clip-rule:evenodd;fill:#231F20;" d="M383.377,215.011h10.947v0.854h-0.6
			c-0.404,0-0.988,0.18-1.759,0.536c-0.774,0.356-1.47,0.867-2.109,1.531c-0.63,0.662-1.403,1.753-2.328,3.252l-7.544,11.789v7.987
			c0,1.933,0.221,3.14,0.655,3.621c0.591,0.648,1.531,0.972,2.809,0.972h1.034v0.851h-13.446v-0.851h1.127
			c1.342,0,2.289-0.404,2.857-1.21c0.34-0.495,0.513-1.625,0.513-3.384v-7.339l-8.588-13.275c-1.018-1.531-1.705-2.494-2.068-2.873
			c-0.363-0.386-1.111-0.844-2.257-1.381c-0.308-0.151-0.748-0.228-1.342-0.228v-0.854h13.385v0.854h-0.694
			c-0.726,0-1.397,0.173-2.004,0.513c-0.609,0.338-0.917,0.844-0.917,1.522c0,0.561,0.475,1.563,1.422,3.015l6.495,10.117
			l6.187-9.674c0.931-1.454,1.39-2.533,1.39-3.245c0-0.434-0.112-0.819-0.331-1.159c-0.231-0.34-0.545-0.607-0.963-0.796
			c-0.42-0.199-1.043-0.292-1.871-0.292V215.011z"/>
		<path style="fill-rule:evenodd;clip-rule:evenodd;fill:#295CA9;" d="M143.497,260.116c0,0,33.261,6.263,60.705,21.368
			c27.445,15.106,45.437,31.22,45.442,31.8c0.005,0.58,17.954-16.861,44.964-31.897c27.01-15.035,60.563-21.271,60.563-21.271
			v13.524c0,0-22.352,3.135-50.832,18.125c-28.48,14.99-45.364,31.782-45.364,31.8l0.007,0.295v9.219l-0.144,0.376l-0.181,0.333
			l-0.234,0.349l-0.271,0.292l-0.336,0.269l-0.34,0.227l-0.38,0.186l-0.353,0.125h-13.428l-0.438-0.089l-0.401-0.128l-0.392-0.17
			l-0.366-0.255l-0.354-0.357l-0.256-0.377l-0.208-0.346l-0.113-0.395v-9.011c0,0-20.199-18.489-42.168-30.315
			c-21.969-11.826-55.211-20.201-55.122-20.155V260.116z"/>
	</g>
</g>
</svg>
